<svg xmlns="http://www.w3.org/2000/svg" width="1200" height="675" viewBox="0 0 1200 675" role="img" aria-labelledby="title desc">
  <title id="title">OSX-Mac-Spoofer project overview</title>
  <desc id="desc">Generated overview of the repository purpose, code shape, entry points, and verification surfaces.</desc>
  <rect width="1200" height="675" fill="#f8fafc"/>
  <rect x="32" y="32" width="1136" height="611" rx="24" fill="#ffffff" stroke="#d1d5db" stroke-width="2"/>
  <rect x="32" y="32" width="1136" height="126" rx="24" fill="#111827"/>
  <path d="M32 134h1136v24H32z" fill="#111827"/>
  <circle cx="1062" cy="82" r="18" fill="#2563eb"/>
  <circle cx="1110" cy="82" r="18" fill="#10b981"/>
  <circle cx="1014" cy="82" r="18" fill="#f97316"/>
  <text x="76" y="82" font-size="36" fill="#ffffff" font-weight="700">OSX-Mac-Spoofer</text>
  <text x="76" y="124" font-size="20" fill="#cbd5e1">macOS local-admin MAC address utility</text>
  <text x="76" y="206" font-size="24" fill="#111827">Dry-run first, validate inputs, then run explicit commands</text>

  <rect x="76" y="286" width="316" height="276" rx="14" fill="#eff6ff" stroke="#bfdbfe"/>
  <text x="102" y="328" font-size="24" font-weight="700" fill="#1d4ed8">Code Shape</text>
  <text x="102" y="370" font-size="19" fill="#1f2937">Languages: Python (1)</text>
  <text x="102" y="430" font-size="19" fill="#1f2937">Source: SpoofMACAddress.py</text>
  <text x="102" y="490" font-size="19" fill="#1f2937">Manifests: Makefile</text>

  <rect x="442" y="286" width="316" height="276" rx="14" fill="#ecfdf5" stroke="#bbf7d0"/>
  <text x="468" y="328" font-size="24" font-weight="700" fill="#047857">How It Runs</text>
  <text x="468" y="370" font-size="19" fill="#1f2937">Entry point: python3 SpoofMACAddress.py</text>
  <text x="468" y="466" font-size="19" fill="#1f2937">Tests: make check</text>

  <rect x="808" y="286" width="316" height="276" rx="14" fill="#fff7ed" stroke="#fed7aa"/>
  <text x="834" y="328" font-size="24" font-weight="700" fill="#c2410c">Review Focus</text>
  <text x="834" y="370" font-size="19" fill="#1f2937">Integrations: networksetup, ifconfig</text>
  <text x="834" y="466" font-size="19" fill="#1f2937">Sensitive surfaces: subprocess</text>
  <text x="834" y="490" font-size="19" fill="#1f2937">Guardrails: dry-run and validation</text>

  <path d="M392 424h50" stroke="#94a3b8" stroke-width="4" stroke-linecap="round"/>
  <path d="M430 412l18 12-18 12z" fill="#94a3b8"/>
  <path d="M758 424h50" stroke="#94a3b8" stroke-width="4" stroke-linecap="round"/>
  <path d="M796 412l18 12-18 12z" fill="#94a3b8"/>
  <text x="76" y="608" font-size="18" fill="#475569">Generated from repository source, manifests, README, and GitHub metadata.</text>
</svg>
